<?xml version="1.0" encoding="UTF-8" standalone="no"?>
<!DOCTYPE svg PUBLIC "-//W3C//DTD SVG 1.1//EN" "http://www.w3.org/Graphics/SVG/1.1/DTD/svg11.dtd">
<svg width="100%" height="100%" viewBox="0 0 1112 1112" version="1.1" xmlns="http://www.w3.org/2000/svg" xmlns:xlink="http://www.w3.org/1999/xlink" xml:space="preserve" xmlns:serif="http://www.serif.com/" style="fill-rule:evenodd;clip-rule:evenodd;stroke-linejoin:round;stroke-miterlimit:2;">
    <g id="logo" transform="matrix(1,0,0,1,-25.4236,9.45937)">
        <g transform="matrix(1.00088,0,0,0.984403,25.4266,-9.43378)">
            <path d="M1110.73,222.121L1110.73,907.142C1110.73,1029.75 1011.19,1129.29 888.584,1129.29L222.144,1129.29C99.538,1129.29 -0.003,1029.75 -0.003,907.142L-0.003,222.121C-0.003,99.515 99.538,-0.026 222.144,-0.026L888.584,-0.026C1011.19,-0.026 1110.73,99.515 1110.73,222.121Z" style="fill:white;"/>
        </g>
        <g transform="matrix(1,0,0,1,25.2691,-9.41737)">
            <path d="M982.384,813.195C982.323,836.663 963.031,855.952 939.566,856.013L173.327,856.013C172.607,856.048 171.887,856.067 171.167,856.067C147.677,856.067 128.349,836.74 128.349,813.249C128.349,789.762 147.677,770.431 171.167,770.431C171.887,770.431 172.607,770.45 173.327,770.485L940.113,770.485C963.377,770.725 982.384,789.931 982.384,813.195Z" style="fill-rule:nonzero;"/>
        </g>
        <g transform="matrix(1,0,0,1,25.2691,-9.41737)">
            <path d="M768.515,955.191C768.396,978.617 749.123,997.842 725.697,997.9L387.088,997.9C386.368,997.935 385.648,997.954 384.928,997.954C361.437,997.954 342.11,978.627 342.11,955.136C342.11,931.649 361.437,912.318 384.928,912.318C385.648,912.318 386.368,912.338 387.088,912.376L725.697,912.376C749.184,912.376 768.515,931.703 768.515,955.191Z" style="fill-rule:nonzero;"/>
        </g>
        <g transform="matrix(1,0,0,1,25.2691,-9.41737)">
            <path d="M600.193,495.232C592.686,509.718 577.508,518.687 561.198,518.278C554.866,518.22 548.629,516.729 542.959,513.91L302.655,394.524L302.655,714.89L217.019,714.89L217.019,343.514C216.894,334.628 218.184,325.777 220.843,317.297C222.702,312.43 225.083,307.781 227.943,303.426C240.055,285.868 263.533,279.906 282.556,289.554L349.514,322.321L580.75,437.995C601.703,448.436 610.452,474.189 600.193,495.232Z" style="fill-rule:nonzero;"/>
        </g>
        <g transform="matrix(1,0,0,1,25.2691,-9.41737)">
            <path d="M887.027,306.702C887.071,306.341 887.071,305.973 887.027,305.611C887.027,304.738 886.044,303.973 885.497,303.099C884.95,302.226 883.75,300.04 882.768,298.511C874.717,286.316 863.603,276.447 850.544,269.894L581.624,136.854C565.848,128.998 547.266,128.998 531.487,136.854L263.331,269.894C248.407,277.218 236.061,288.917 227.943,303.426C240.058,285.868 233.412,400.043 252.4,409.765L349.514,322.433L557.048,219.54L758.793,320.248L538.37,428.603C523.459,435.675 513.91,450.766 513.904,467.268L513.904,714.89L599.319,714.89L599.319,498.07C599.313,495.785 600.637,493.693 602.705,492.72L810.238,390.371L810.238,714.89L895.874,714.89L895.874,343.514C895.839,330.721 892.809,318.113 887.027,306.702Z" style="fill-rule:nonzero;"/>
        </g>
    </g>
</svg>
