<?xml version="1.0" encoding="UTF-8" standalone="no"?><!DOCTYPE svg PUBLIC "-//W3C//DTD SVG 1.1//EN" "http://www.w3.org/Graphics/SVG/1.1/DTD/svg11.dtd">
<svg width="100%" height="100%" viewBox="0 0 1938 271" version="1.1"
  xmlns="http://www.w3.org/2000/svg"
  xmlns:xlink="http://www.w3.org/1999/xlink" xml:space="preserve"
  xmlns:serif="http://www.serif.com/" style="fill-rule:evenodd;clip-rule:evenodd;stroke-linejoin:round;stroke-miterlimit:2;">
  <g id="logo">
    <path d="M266.893,213.203c-0.019,7.334 -6.048,13.362 -13.381,13.381l-239.456,-0c-0.225,0.011 -0.45,0.017 -0.675,0.017c-7.341,0 -13.381,-6.04 -13.381,-13.381c0,-7.34 6.04,-13.381 13.381,-13.381c0.225,0 0.45,0.006 0.675,0.017l239.627,0c7.27,0.075 13.21,6.077 13.21,13.347Z" style="fill:#000000;fill-rule:nonzero;"/>
    <path d="M200.057,257.578c-0.037,7.321 -6.06,13.329 -13.381,13.347l-105.818,0c-0.225,0.011 -0.45,0.017 -0.675,0.017c-7.341,0 -13.381,-6.04 -13.381,-13.381c-0,-7.34 6.04,-13.381 13.381,-13.381c0.225,0 0.45,0.006 0.675,0.018l105.818,-0c7.34,-0 13.381,6.04 13.381,13.38Z" style="fill:#000000;fill-rule:nonzero;"/>
    <path d="M147.455,113.837c-2.346,4.527 -7.089,7.33 -12.186,7.202c-1.979,-0.018 -3.928,-0.484 -5.7,-1.365l-75.097,-37.309l0,100.117l-26.762,-0l0,-116.058c-0.039,-2.777 0.364,-5.543 1.195,-8.193c0.581,-1.521 1.325,-2.974 2.219,-4.335c3.785,-5.487 11.122,-7.35 17.067,-4.335l20.925,10.24l72.263,36.149c6.548,3.263 9.282,11.311 6.076,17.887Z" style="fill:#000000;fill-rule:nonzero;"/>
    <path d="M237.093,54.92c0.014,-0.113 0.014,-0.228 0,-0.341c0,-0.273 -0.307,-0.512 -0.478,-0.785c-0.171,-0.273 -0.546,-0.956 -0.853,-1.434c-2.516,-3.811 -5.989,-6.895 -10.07,-8.943l-84.04,-41.576c-4.93,-2.455 -10.737,-2.455 -15.668,-0l-83.801,41.576c-4.664,2.289 -8.522,5.945 -11.059,10.479c3.786,-5.487 11.133,-7.339 17.067,-4.301l20.925,10.241l64.856,-32.155l63.047,31.472l-68.884,33.862c-4.66,2.21 -7.644,6.926 -7.646,12.083l-0,77.384l26.693,-0l0,-67.758c-0.002,-0.714 0.412,-1.368 1.058,-1.672l64.856,-31.985l0,101.415l26.762,-0l-0,-116.058c-0.011,-3.998 -0.958,-7.938 -2.765,-11.504Z" style="fill:#000000;fill-rule:nonzero;"/>
    <path d="M463.099,162.24c-2.337,4.522 -5.763,8.394 -9.967,11.264c-4.728,3.23 -10.019,5.545 -15.6,6.827c-6.608,1.565 -13.382,2.322 -20.173,2.253l-62.569,0l-0,-131.76l61.067,0c13.517,0 24.122,3.072 31.813,9.216c7.609,5.948 11.917,15.2 11.572,24.851l0,0.375c0.051,3.375 -0.421,6.737 -1.399,9.967c-0.883,2.768 -2.147,5.399 -3.755,7.817c-1.513,2.282 -3.34,4.339 -5.428,6.11c-2.024,1.755 -4.246,3.267 -6.622,4.506c6.865,2.403 13.041,6.446 17.989,11.777c4.633,5.784 6.968,13.081 6.554,20.481l0,0.375c0.145,5.517 -1.05,10.987 -3.482,15.941Zm-32.598,-72.468c0.245,-4.022 -1.603,-7.898 -4.882,-10.241c-4.25,-2.554 -9.183,-3.746 -14.131,-3.413l-28.605,-0l-0,27.854l26.727,-0c5.286,0.212 10.535,-0.966 15.224,-3.414c3.637,-2.095 5.823,-6.046 5.667,-10.24l-0,-0.546Zm7.339,52.704c0.137,-4.105 -1.771,-8.022 -5.086,-10.445c-4.919,-2.979 -10.655,-4.329 -16.385,-3.858l-33.486,0l-0,28.981l34.442,-0c5.238,0.299 10.456,-0.884 15.053,-3.414c3.652,-2.338 5.749,-6.493 5.462,-10.82l-0,-0.444Z" style="fill:#000000;fill-rule:nonzero;"/>
    <path d="M518.876,182.482l-0,-131.658l28.98,0l-0,105.579l65.675,-0l0,26.079l-94.655,-0Z" style="fill:#000000;fill-rule:nonzero;"/>
    <path d="M792.329,143.124c-6.938,16.505 -20.175,29.583 -36.763,36.32c-8.915,3.634 -18.466,5.456 -28.093,5.359c-9.606,0.11 -19.137,-1.713 -28.025,-5.359c-8.225,-3.376 -15.732,-8.288 -22.119,-14.473c-6.218,-6.111 -11.141,-13.414 -14.473,-21.471c-3.485,-8.369 -5.249,-17.355 -5.188,-26.42l-0,-0.376c-0.03,-9.068 1.794,-18.048 5.359,-26.386c6.937,-16.505 20.175,-29.583 36.763,-36.319c18.041,-7.142 38.144,-7.142 56.186,-0c8.233,3.375 15.742,8.3 22.119,14.507c6.215,6.101 11.137,13.392 14.473,21.437c3.485,8.381 5.249,17.377 5.189,26.454l-0,0.375c0.008,9.063 -1.839,18.031 -5.428,26.352Zm-25.021,-26.42c0.041,-5.47 -0.943,-10.901 -2.901,-16.009c-1.875,-4.893 -4.693,-9.37 -8.295,-13.176c-3.616,-3.772 -7.928,-6.809 -12.698,-8.943c-10.254,-4.323 -21.832,-4.323 -32.087,-0c-4.719,2.036 -8.954,5.049 -12.425,8.841c-3.442,3.849 -6.139,8.306 -7.953,13.141c-1.963,5.072 -2.948,10.469 -2.902,15.907l0,0.376c-0.037,5.459 0.948,10.877 2.902,15.975c1.866,4.897 4.686,9.376 8.295,13.176c3.582,3.765 7.86,6.802 12.595,8.943c5.053,2.277 10.536,3.441 16.078,3.414c5.498,0.056 10.949,-1.025 16.009,-3.175c4.739,-2.054 9.004,-5.064 12.528,-8.841c3.484,-3.831 6.227,-8.276 8.089,-13.108c1.961,-5.06 2.946,-10.446 2.902,-15.872l-0.137,-0.649Z" style="fill:#000000;fill-rule:nonzero;"/>
    <path d="M956.927,171.081c-3.691,2.91 -7.699,5.395 -11.947,7.407c-4.522,2.148 -9.291,3.73 -14.2,4.711c-5.7,1.116 -11.498,1.653 -17.307,1.604c-9.24,0.089 -18.403,-1.7 -26.932,-5.257c-8.019,-3.352 -15.303,-8.246 -21.436,-14.405c-6.074,-6.179 -10.866,-13.499 -14.098,-21.539c-3.426,-8.419 -5.155,-17.433 -5.086,-26.522l-0,-0.376c-0.14,-17.917 6.751,-35.193 19.184,-48.096c6.153,-6.298 13.514,-11.29 21.641,-14.678c8.823,-3.661 18.302,-5.485 27.854,-5.359c5.645,-0.039 11.28,0.464 16.828,1.502c4.74,0.908 9.373,2.303 13.825,4.165c4.065,1.682 7.924,3.824 11.503,6.383c3.432,2.496 6.662,5.258 9.661,8.26l-18.331,21.437c-4.709,-4.334 -9.993,-7.998 -15.702,-10.889c-5.609,-2.693 -11.767,-4.048 -17.989,-3.96c-5.281,-0.052 -10.51,1.043 -15.326,3.209c-4.628,2.059 -8.769,5.072 -12.152,8.841c-3.417,3.818 -6.092,8.24 -7.885,13.039c-1.91,5.085 -2.871,10.476 -2.834,15.907l0,0.376c-0.026,5.452 0.934,10.864 2.834,15.975c1.762,4.84 4.413,9.309 7.816,13.176c6.962,7.885 17.03,12.351 27.547,12.22c6.614,0.21 13.179,-1.208 19.116,-4.13c5.641,-3.083 10.861,-6.881 15.531,-11.299l18.433,18.638c-3.266,3.483 -6.792,6.712 -10.548,9.66Z" style="fill:#000000;fill-rule:nonzero;"/>
    <path d="M1103.88,182.482l-40.961,-56.084l-15.225,15.805l0,40.279l-28.98,-0l-0,-131.658l28.98,0l0,57.585l53.558,-57.585l34.988,0l-53.762,55.879l56.22,75.779l-34.818,-0Z" style="fill:#000000;fill-rule:nonzero;"/>
    <path d="M1213.42,77.005l-0,28.401l62.842,-0l-0,26.147l-62.842,-0l-0,50.929l-28.981,-0l0,-131.658l100.288,0l0,26.181l-71.307,0Z" style="fill:#000000;fill-rule:nonzero;"/>
    <path d="M1416.04,182.482l-28.196,-42.157l-22.768,0l0,42.157l-28.98,-0l0,-131.658l60.214,0c15.656,0 27.854,3.835 36.592,11.503c8.739,7.669 13.097,18.331 13.074,31.985l-0,0.375c0.422,9.315 -2.335,18.502 -7.817,26.045c-5.28,6.775 -12.387,11.904 -20.481,14.78l32.258,46.97l-33.896,-0Zm0.58,-86.737c0.349,-5.392 -1.883,-10.641 -6.008,-14.131c-4.912,-3.375 -10.81,-5.021 -16.76,-4.677l-28.776,0l0,37.89l29.356,-0c5.922,0.389 11.784,-1.423 16.453,-5.086c3.887,-3.44 6,-8.471 5.735,-13.654l-0,-0.342Z" style="fill:#000000;fill-rule:nonzero;"/>
    <path d="M1629.25,143.124c-6.936,16.518 -20.19,29.6 -36.797,36.32c-18.029,7.143 -38.122,7.143 -56.152,-0c-8.225,-3.376 -15.732,-8.288 -22.119,-14.473c-6.218,-6.111 -11.141,-13.414 -14.473,-21.471c-3.485,-8.369 -5.249,-17.355 -5.188,-26.42l-0,-0.376c-0.063,-9.061 1.726,-18.04 5.256,-26.386c3.44,-8.082 8.4,-15.429 14.61,-21.641c6.355,-6.309 13.896,-11.298 22.188,-14.678c18.041,-7.142 38.144,-7.142 56.185,-0c8.262,3.348 15.806,8.25 22.222,14.439c6.234,6.092 11.169,13.385 14.507,21.436c3.474,8.384 5.227,17.38 5.155,26.455l-0,0.375c0.028,9.083 -1.808,18.076 -5.394,26.42Zm-25.02,-26.42c0.056,-5.516 -0.928,-10.994 -2.902,-16.146c-1.862,-4.891 -4.669,-9.368 -8.26,-13.176c-3.617,-3.772 -7.929,-6.809 -12.699,-8.943c-10.254,-4.322 -21.832,-4.322 -32.086,0c-4.725,2.027 -8.962,5.042 -12.425,8.841c-3.518,3.877 -6.274,8.381 -8.124,13.278c-1.964,5.072 -2.948,10.469 -2.902,15.907l0,0.376c-0.037,5.459 0.947,10.877 2.902,15.975c3.764,9.841 11.28,17.799 20.89,22.119c5.052,2.28 10.536,3.444 16.078,3.414c5.497,0.053 10.947,-1.028 16.009,-3.175c4.736,-2.042 8.992,-5.054 12.493,-8.841c3.526,-3.909 6.282,-8.449 8.124,-13.381c1.972,-5.058 2.968,-10.444 2.936,-15.872l-0.034,-0.376Z" style="fill:#000000;fill-rule:nonzero;"/>
    <path d="M1780.19,161.011c-2.295,4.966 -5.693,9.344 -9.933,12.801c-4.493,3.585 -9.641,6.263 -15.156,7.885c-6.335,1.88 -12.917,2.801 -19.525,2.731c-10.077,0.002 -20.079,-1.742 -29.56,-5.155c-9.687,-3.531 -18.584,-8.937 -26.182,-15.907l17.068,-20.48c5.658,4.661 11.886,8.584 18.535,11.674c6.539,2.911 13.63,4.378 20.788,4.301c4.907,0.235 9.779,-0.95 14.029,-3.414c3.189,-1.905 5.101,-5.401 4.984,-9.114l-0,-0.375c0.04,-1.732 -0.322,-3.45 -1.058,-5.018c-0.928,-1.679 -2.297,-3.072 -3.96,-4.028c-2.554,-1.539 -5.266,-2.797 -8.09,-3.755c-3.413,-1.263 -7.953,-2.56 -13.654,-3.96c-6.13,-1.471 -12.171,-3.295 -18.091,-5.461c-4.907,-1.765 -9.512,-4.274 -13.654,-7.441c-3.752,-2.919 -6.758,-6.686 -8.773,-10.992c-2.215,-5.17 -3.276,-10.762 -3.106,-16.385l0,-0.375c-0.073,-5.612 1.092,-11.172 3.413,-16.282c2.217,-4.787 5.429,-9.046 9.422,-12.494c4.258,-3.622 9.187,-6.371 14.507,-8.09c6.008,-1.94 12.29,-2.897 18.603,-2.833c9.059,-0.102 18.067,1.365 26.626,4.335c8.072,2.866 15.607,7.066 22.29,12.425l-15.054,21.813c-5.424,-3.756 -11.224,-6.936 -17.306,-9.49c-5.408,-2.253 -11.209,-3.413 -17.068,-3.413c-4.492,-0.289 -8.956,0.911 -12.698,3.413c-2.654,1.881 -4.234,4.939 -4.232,8.192l-0,0.376c-0.05,1.927 0.372,3.837 1.228,5.564c1.052,1.8 2.591,3.267 4.438,4.233c2.78,1.519 5.723,2.722 8.773,3.584c3.72,1.126 8.397,2.423 14.063,3.925c6.066,1.577 12.019,3.562 17.818,5.94c4.782,1.936 9.237,4.595 13.211,7.885c3.478,2.958 6.254,6.655 8.124,10.821c1.922,4.72 2.851,9.787 2.73,14.882l0,0.376c0.09,5.958 -1.122,11.864 -3.55,17.306Z" style="fill:#000000;fill-rule:nonzero;"/>
    <path d="M1896.83,77.552l-0,104.93l-28.98,-0l-0,-104.93l-40.075,-0l0,-26.728l109.232,0l-0,26.728l-40.177,-0Z" style="fill:#000000;fill-rule:nonzero;"/>
  </g>
</svg>